<svg width="500" height="500" viewBox="0 0 500 500" fill="none" xmlns="http://www.w3.org/2000/svg">
<rect width="500" height="500" rx="250" fill="black"/>
<path fill-rule="evenodd" clip-rule="evenodd" d="M250 100C332.843 100 400 167.157 400 250V400L356.067 356.067C328.922 383.212 291.421 400 250 400C167.157 400 100 332.843 100 250C100 167.157 167.157 100 250 100ZM250 137.5C187.868 137.5 137.5 187.868 137.5 250C137.5 312.132 187.868 362.5 250 362.5C281.066 362.5 309.19 349.907 329.548 329.548L250 250H362.5C362.5 187.868 312.132 137.5 250 137.5Z" fill="#EBEBEB"/>
</svg>
